<svg xmlns="http://www.w3.org/2000/svg" viewBox="0 0 169.51 62"><path d="M12.26 26.44c-2.39 0-4.56-.63-6.04-2.23-4.13-4.46.03-15.72 4.62-22.13.51-.71 1.49-.87 2.2-.36.71.51.87 1.49.36 2.2-4.77 6.66-7.18 15.65-4.87 18.15 2.36 2.55 9.34.67 13.31-1.81.1-.07.21-.13.31-.2-2.55-3.61.44-10.38 1.86-12.44C26.18 4.49 29.94.64 33.43.07c1.36-.22 2.61.07 3.62.83.69.52 1.48 1.51 1.4 3.32-.18 4-4.75 10.17-9.79 14.75 2.3-.27 4.87-1.1 5.68-1.64.31-.21.67-.38 1.14-.6 2.06-.97 6.34-2.99 9.74-10.65.35-.8 1.29-1.16 2.08-.8.8.35 1.16 1.29.8 2.08-3.87 8.73-9.06 11.18-11.28 12.22-.3.14-.62.29-.73.37-1.31.87-7.14 2.96-11.06 1.97-.51.37-1.02.7-1.51 1.02-3 1.87-7.41 3.5-11.26 3.5zM34.3 3.15c-.11 0-.24 0-.37.03-2 .32-5.01 2.88-7.32 6.23-1.44 2.09-3.12 7.04-1.9 8.8C30.33 13.72 35.16 7.07 35.3 4.07c0-.2 0-.55-.15-.66-.16-.12-.41-.26-.84-.26zm85.24 26.95c-.01.24-.03.49-.04.78h-12.99v3.3h11.35v.83h-11.34v3.16h12.97v.76h-16.87V30.1h16.93zm-46.8 8.76h-2.61v-8.75h2.61v3.95l.49-.51c1.94-1.87 4.26-1.92 6.67-1.3.75.19 1.48.58 2.13 1.01 1.02.66 1.52 1.67 1.59 2.87.05.88 0 1.77 0 2.72h-2.83c0-.72.02-1.45 0-2.17-.06-1.77-.94-3.02-2.59-3.62 0 0-5.46-1.65-5.46 5.8zm85.88 0h-2.61v-8.75h2.61v3.95l.49-.51c1.94-1.87 4.26-1.92 6.67-1.3.75.19 1.48.58 2.13 1.01 1.02.66 1.52 1.67 1.59 2.87.05.88 0 1.77 0 2.72h-2.83c0-.72.02-1.45 0-2.17-.06-1.77-.94-3.02-2.59-3.62 0 0-5.46-1.65-5.46 5.8zM57.06 30.89h-4.99v-.77h17.04v.77h-6.58v8.04h-3.89v-8.04h-1.58zm79.74 2.99c3.56-3.6 10.31-1.33 10.58 1.73h-2.9s-.07-.26-.14-.43c-.9-2.21-4.69-3.27-6.71-.64-.43.55-.67 1.32-.79 2.02-.13.79-.03 1.62-.03 2.46h-2.84v-6.86h2.84s.01.13 0 .49c-.02.41 0 .81 0 1.22zm18.35 5.29s-2.55.21-3.67-.24c-2.2-.88-3.44-2.4-3.43-4.63v-3.96h2.71v1.83h4.39v.82h-4.38c0 5.81 4.38 5.33 4.38 5.33v.85zm-22.02-3.62v-.04c0-2.39-3.8-3.41-6.67-3.41-3.75 0-6.93.98-6.93 3.41 0 2.23 2.58 3.5 6.8 3.5 1.56 0 2.9-.25 3.97-.65v.67h2.84v-3.47h-.02zm-6.86 2.64c-2.18 0-3.94-.82-3.94-2.69 0-1.29.8-2.67 4-2.67 2.77 0 3.84 1.33 3.84 2.62s-1 2.73-3.9 2.73zM97.74 35.3c0-1.18-1.75-3.26-6.68-3.26s-6.9 1.77-6.9 3.47v.07c0 2.49 3.66 3.39 6.79 3.39 2.24 0 6.44-.78 6.44-2.6H95c-.91 1.38-2.93 1.8-4.09 1.8-3.19 0-3.87-1.49-3.87-2.6h10.19c.29 0 .5-.1.5-.27zm-10.56-.62c.18-.82 1.24-1.86 3.71-1.86 2.74 0 3.76 1.18 3.76 1.86h-7.47zm-66.21-7.63c-2.23-1.4-8.13 4.76-13.52 14.36-5.39 9.6-8.9 18.94-6.87 20.39s8.75-4.97 14.68-15.97 6.84-18.06 5.71-18.78zm11.35-1.98c-1.79-1.05-5.59 1.91-8.84 7.24s-5.06 10.88-3.11 12.17c1.67 1.1 6.24-2.16 9.81-8.26 3.57-6.1 3.25-10.5 2.14-11.14z" fill="#f20003"/></svg>